<svg width="80" height="100" viewBox="0 0 80 100" fill="none" xmlns="http://www.w3.org/2000/svg">
<path d="M4.25 100V50.625H14.25V90H49.25V65.875L62.375 52.75C64.7917 50.3333 66.6667 47.625 68 44.625C69.3333 41.625 70 38.4167 70 35C70 31.6667 69.3117 28.5 67.935 25.5C66.5583 22.5 64.705 19.7917 62.375 17.375L59.25 14.125L43.375 30H23.375L18 35.375L10.875 28.375L19.25 20H39.25L59.25 0L69.5 10.25C72.8333 13.5833 75.4167 17.355 77.25 21.565C79.0833 25.775 80 30.2533 80 35C80 39.7467 79.0833 44.2267 77.25 48.44C75.4167 52.6533 72.8333 56.4233 69.5 59.75L59.25 70V100H4.25ZM28.875 76.625L2.875 50.625C1.95833 49.7083 1.25 48.625 0.75 47.375C0.25 46.125 0 44.8333 0 43.5C0 42.1667 0.25 40.895 0.75 39.685C1.25 38.475 1.95833 37.4133 2.875 36.5L13.375 25.875L28.875 41.25C31.2083 43.5833 33.0217 46.2717 34.315 49.315C35.6083 52.3583 36.2533 55.545 36.25 58.875C36.2467 62.205 35.6217 65.3933 34.375 68.44C33.1283 71.4867 31.295 74.215 28.875 76.625Z" fill="#8E4A64"/>
</svg>
