<svg width="81" height="87" viewBox="0 0 81 87" fill="none" xmlns="http://www.w3.org/2000/svg">
<path d="M26.7154 60.2723C33.1415 66.6984 48.7708 61.49 61.6231 48.6357C74.4775 35.7834 79.6858 20.1541 73.2597 13.7279M45.6236 9.36293L48.5322 12.2736M35.4433 19.5452L38.352 22.4538M26.7133 31.1818L29.622 34.0904M23.8047 45.727L26.7133 48.6357M61.6231 4.99997L64.5317 7.90861M58.7145 22.4559L64.5317 28.2732M48.5342 32.6382L54.3515 38.4554M36.8977 41.3641L42.7149 47.1813" stroke="#CC969D" stroke-width="9" stroke-linecap="round" stroke-linejoin="round"/>
<path d="M26.7142 69.0001C29.1241 66.5902 29.1242 62.6829 26.7142 60.2729C24.3042 57.8629 20.3969 57.8629 17.987 60.2729L6.35068 71.9092C3.94072 74.3191 3.94072 78.2265 6.35068 80.6364C8.76063 83.0464 12.6679 83.0464 15.0779 80.6364L26.7142 69.0001Z" stroke="#CC969D" stroke-width="9" stroke-linecap="round" stroke-linejoin="round"/>
</svg>
