<svg width="21" height="19" viewBox="0 0 21 19" fill="none" xmlns="http://www.w3.org/2000/svg">
<path d="M10.5 3.10292L9.97217 3.60313C10.1103 3.74441 10.3008 3.82424 10.5 3.82424C10.6992 3.82424 10.8897 3.74441 11.0278 3.60313L10.5 3.10292ZM7.98591 15.4339C6.5055 14.2848 4.88672 13.1626 3.60252 11.7387C2.34342 10.3426 1.46512 8.71369 1.46512 6.60033H0C0 9.16389 1.08467 11.1196 2.50703 12.6966C3.90427 14.2458 5.6854 15.4851 7.07888 16.5668L7.98591 15.4339ZM1.46512 6.60033C1.46512 4.53171 2.65222 2.79698 4.27263 2.06765C5.84686 1.35911 7.96209 1.54675 9.97217 3.60313L11.0278 2.60271C8.64272 0.162722 5.87423 -0.239418 3.66353 0.755588C1.49902 1.72981 0 3.99197 0 6.60033H1.46512ZM7.07888 16.5668C7.57919 16.9552 8.11629 17.3693 8.66059 17.6825C9.20474 17.9955 9.82566 18.25 10.5 18.25V16.8074C10.1976 16.8074 9.84177 16.6913 9.39979 16.4369C8.95801 16.1827 8.49971 15.8327 7.98591 15.4339L7.07888 16.5668ZM13.9211 16.5668C15.3146 15.4851 17.0958 14.2458 18.493 12.6966C19.9153 11.1196 21 9.16389 21 6.60033H19.5349C19.5349 8.71369 18.6566 10.3426 17.3975 11.7387C16.1133 13.1626 14.4945 14.2848 13.0141 15.4339L13.9211 16.5668ZM21 6.60033C21 3.99197 19.501 1.72981 17.3364 0.755588C15.1258 -0.239418 12.3573 0.162722 9.97217 2.60271L11.0278 3.60313C13.0379 1.54675 15.1531 1.35911 16.7273 2.06765C18.3477 2.79698 19.5349 4.53171 19.5349 6.60033H21ZM13.0141 15.4339C12.5003 15.8327 12.042 16.1827 11.6002 16.4369C11.1582 16.6913 10.8024 16.8074 10.5 16.8074V18.25C11.1743 18.25 11.7953 17.9955 12.3394 17.6825C12.8837 17.3693 13.4208 16.9552 13.9211 16.5668L13.0141 15.4339Z" fill="#1C274C"/>
</svg>
