<svg width="21" height="19" viewBox="0 0 21 19" fill="none" xmlns="http://www.w3.org/2000/svg">
<path d="M10.5 3.35292L9.97217 3.85313C10.1103 3.99441 10.3008 4.07424 10.5 4.07424C10.6992 4.07424 10.8897 3.99441 11.0278 3.85313L10.5 3.35292ZM7.98591 15.6839C6.5055 14.5348 4.88672 13.4126 3.60252 11.9887C2.34342 10.5926 1.46512 8.96369 1.46512 6.85033H0C0 9.41389 1.08467 11.3696 2.50703 12.9466C3.90427 14.4958 5.6854 15.7351 7.07888 16.8168L7.98591 15.6839ZM1.46512 6.85033C1.46512 4.78171 2.65222 3.04698 4.27263 2.31765C5.84686 1.60911 7.96209 1.79675 9.97217 3.85313L11.0278 2.85271C8.64272 0.412722 5.87423 0.0105821 3.66353 1.00559C1.49902 1.97981 0 4.24197 0 6.85033H1.46512ZM7.07888 16.8168C7.57919 17.2052 8.11629 17.6193 8.6606 17.9325C9.20474 18.2455 9.82566 18.5 10.5 18.5V17.0574C10.1976 17.0574 9.84177 16.9413 9.3998 16.6869C8.95801 16.4327 8.49971 16.0827 7.98591 15.6839L7.07888 16.8168ZM13.9211 16.8168C15.3146 15.7351 17.0958 14.4958 18.493 12.9466C19.9153 11.3696 21 9.41389 21 6.85033H19.5349C19.5349 8.96369 18.6566 10.5926 17.3975 11.9887C16.1133 13.4126 14.4945 14.5348 13.0141 15.6839L13.9211 16.8168ZM21 6.85033C21 4.24197 19.501 1.97981 17.3364 1.00559C15.1258 0.0105821 12.3573 0.412722 9.97217 2.85271L11.0278 3.85313C13.0379 1.79675 15.1531 1.60911 16.7273 2.31765C18.3477 3.04698 19.5349 4.78171 19.5349 6.85033H21ZM13.0141 15.6839C12.5003 16.0827 12.042 16.4327 11.6002 16.6869C11.1582 16.9413 10.8024 17.0574 10.5 17.0574V18.5C11.1743 18.5 11.7953 18.2455 12.3394 17.9325C12.8837 17.6193 13.4208 17.2052 13.9211 16.8168L13.0141 15.6839Z" fill="#89515A"/>
</svg>
