<svg width="94" height="60" viewBox="0 0 94 60" fill="none" xmlns="http://www.w3.org/2000/svg">
<path fill-rule="evenodd" clip-rule="evenodd" d="M63.615 5.16365C64.5239 4.83903 65.2671 4.57973 65.8651 4.38733V14.9719C65.8651 16.0501 66.4843 16.79 67.1063 17.1954C67.6339 17.5393 68.2389 17.7054 68.6883 17.8055C69.2931 17.9401 70.1073 18.0469 70.9192 18.1534L70.9193 18.1534C71.2891 18.2019 71.6583 18.2503 72.007 18.3013C74.4839 18.6632 77.2579 19.2961 79.5264 21.1393C84.0593 24.8223 86.0181 28.8975 86.0181 33.4326C86.0181 34.3432 86.0086 35.0633 85.9991 35.6436L85.9926 36.0269C85.9856 36.4269 85.9796 36.7696 85.9796 37.0509C85.9796 37.7614 86.0016 38.4871 86.3831 39.2499L86.4692 39.4222L86.5867 39.5749C87.3044 40.508 88.1237 41.3671 88.7642 42.0386L88.7648 42.0393C88.8812 42.1613 88.9916 42.2771 89.0945 42.3861C89.4057 42.7157 89.6343 42.9675 89.7953 43.1668C89.7513 43.3193 89.6899 43.5084 89.6089 43.7327C89.3709 44.3908 89.0076 45.2307 88.5657 46.1109C88.1243 46.9901 87.623 47.8728 87.1187 48.6247C86.5959 49.4042 86.1436 49.9314 85.8215 50.1974L85.7358 50.2681C84.688 51.1342 83.6019 52.0319 81.7036 52.6444C79.7252 53.2828 76.7031 53.6533 71.8275 52.9884C70.7331 52.8392 69.7249 53.6054 69.5756 54.6999C69.4264 55.7943 70.1926 56.8025 71.2871 56.9518C76.5648 57.6715 80.2238 57.325 82.932 56.4511C85.5662 55.6011 87.1466 54.293 88.2429 53.3855L88.3686 53.2816C89.1343 52.6492 89.8413 51.7465 90.4407 50.8528C91.0585 49.9316 91.6423 48.8978 92.1405 47.9055C92.6382 46.9142 93.0687 45.9277 93.3706 45.0926C93.5207 44.6775 93.6502 44.269 93.7383 43.8982C93.808 43.6051 93.9208 43.0722 93.8439 42.534C93.7337 41.7626 93.2857 41.1429 93.0391 40.821C92.7379 40.428 92.3598 40.018 92.0029 39.64C91.8783 39.5081 91.7529 39.3763 91.6271 39.2442L91.6252 39.2422L91.6251 39.2421L91.6251 39.242L91.625 39.2419C91.067 38.6558 90.5037 38.0641 89.9874 37.4275C89.9833 37.3458 89.9796 37.2247 89.9796 37.0509C89.9796 36.8091 89.9846 36.5182 89.9913 36.134L89.9913 36.1324L89.9914 36.129L89.9915 36.127L89.9986 35.7091C90.0083 35.1157 90.0181 34.3723 90.0181 33.4326C90.0181 27.5067 87.3617 22.3516 82.0488 18.0349C78.9036 15.4794 75.2163 14.7277 72.5854 14.3433C72.0441 14.2642 71.5802 14.204 71.1751 14.1514C70.6549 14.0839 70.2315 14.0289 69.8651 13.9627V2.35713C69.8651 1.87089 69.7179 1.26363 69.2406 0.757194C68.7963 0.285819 68.264 0.114452 67.9105 0.0491057C67.2719 -0.0689522 66.6135 0.0506638 66.174 0.147977C65.1958 0.364556 63.8353 0.837488 62.2696 1.39668C59.8925 2.24565 56.8507 3.96435 54.0582 5.74843C51.7036 7.25276 49.4208 8.87205 47.7049 10.2052C44.0625 8.2371 39.6774 7.27986 34.6359 7.27987C23.7737 7.27988 13.5603 13.7654 6.37738 24.1407C-0.800163 34.5083 -0.312516 43.5644 0.352959 47.8899C0.448731 48.5124 0.908115 50.9559 2.75301 53.4591C4.64272 56.0232 7.89143 58.5147 13.2867 59.2589C18.3431 59.9564 22.1667 58.3918 24.7972 56.39C27.3591 54.4403 28.8054 52.0689 29.2584 50.9538C30.3039 48.3803 30.9828 46.0568 31.7162 43.4319C31.8038 43.1184 31.8923 42.8002 31.9824 42.4762C32.6473 40.085 33.3997 37.3788 34.537 33.9003C36.5704 27.6803 40.9836 21.9137 43.1268 19.7706C43.9078 18.9895 43.9078 17.7232 43.1268 16.9422C42.3457 16.1611 41.0794 16.1611 40.2983 16.9422C37.8263 19.4142 33.0091 25.7014 30.735 32.6573C29.5685 36.2255 28.7931 39.0143 28.1278 41.4073L28.1278 41.4074C28.038 41.7303 27.9502 42.0461 27.8637 42.3555C27.1357 44.9612 26.507 47.099 25.5526 49.4483C25.3582 49.9268 24.3431 51.709 22.3748 53.2069C20.4749 54.6527 17.6995 55.8297 13.8332 55.2964C9.53657 54.7038 7.24034 52.8056 5.97299 51.086C4.66082 49.3056 4.35103 47.5715 4.30644 47.2817C3.74118 43.6076 3.24969 35.6858 9.66615 26.4176C16.3288 16.7938 25.44 11.2799 34.6359 11.2799C39.668 11.2799 43.6588 12.3367 46.7258 14.2621C49.7749 16.1762 52.0554 19.0385 53.5358 22.9158C54.7656 26.1367 55.1298 28.2376 55.279 29.6272C55.3173 29.9831 55.3424 30.3018 55.3642 30.6006L55.3756 30.7572L55.3756 30.7575C55.3927 30.9958 55.4105 31.2427 55.4324 31.4639C55.4815 31.9603 55.5766 32.7328 56.0294 33.4373C56.7606 34.5747 58.0881 35.5112 59.4072 36.3507C59.9504 36.6963 60.9497 37.2288 62.0051 37.7912L62.0053 37.7912C62.419 38.0117 62.8413 38.2367 63.2481 38.4568C64.833 39.3145 66.236 40.1241 66.9064 40.6726L67.079 40.8138L67.1819 40.8653C67.1829 40.8678 67.1873 40.8733 67.1943 40.8822L67.1945 40.8823L67.1945 40.8824C67.2995 41.015 67.992 41.8896 67.0507 44.6281C65.4568 49.2649 62.3751 53.9642 56.2993 54.9984C49.419 56.1694 44.2421 55.5489 39.151 51.2833C38.3043 50.5739 37.0429 50.6852 36.3335 51.5319C35.6241 52.3786 35.7354 53.64 36.5821 54.3494C42.875 59.6218 49.3898 60.232 56.9705 58.9416C65.1731 57.5455 69.0429 51.1372 70.8334 45.9284C72.2947 41.6775 71.2534 38.612 69.287 37.4552C68.2484 36.6459 66.5793 35.7114 65.1518 34.9389C64.628 34.6554 64.1328 34.3916 63.6818 34.1513L63.6789 34.1498L63.6775 34.149L63.6773 34.1489L63.677 34.1488L63.6764 34.1484C62.7182 33.638 61.9606 33.2343 61.5547 32.976C60.2818 32.166 59.6882 31.6617 59.4504 31.3534C59.4412 31.3032 59.4271 31.2135 59.4129 31.0698C59.3969 30.9077 59.384 30.7294 59.3672 30.4968L59.3671 30.4953L59.3671 30.4947L59.367 30.4945L59.3536 30.3088C59.3306 29.9941 59.3016 29.6229 59.2562 29.2C59.0708 27.4743 58.6274 25.037 57.2727 21.489C55.8954 17.8819 53.8705 14.8847 51.1825 12.5862C52.634 11.5053 54.3943 10.2804 56.2117 9.11922C58.9575 7.36501 61.6846 5.85309 63.615 5.16365ZM89.9788 43.42C89.9787 43.42 89.9767 43.4166 89.9733 43.41C89.9773 43.4168 89.979 43.42 89.9788 43.42ZM89.8732 42.8439C89.8739 42.836 89.8745 42.8318 89.8746 42.8318C89.8747 42.8318 89.8744 42.8357 89.8732 42.8439ZM75.7877 36.2017C75.7877 34.5449 77.1309 33.2017 78.7877 33.2017H79.0954C80.7523 33.2017 82.0954 34.5449 82.0954 36.2017C82.0954 37.8586 80.7523 39.2017 79.0954 39.2017H78.7877C77.1309 39.2017 75.7877 37.8586 75.7877 36.2017ZM48.6353 32.2787C46.9784 32.2787 45.6353 33.6218 45.6353 35.2787C45.6353 36.9355 46.9784 38.2787 48.6353 38.2787H48.7891C50.4459 38.2787 51.7891 36.9355 51.7891 35.2787C51.7891 33.6218 50.4459 32.2787 48.7891 32.2787H48.6353Z" fill="white"/>
</svg>
