<svg width="80" height="80" viewBox="0 0 80 80" fill="none" xmlns="http://www.w3.org/2000/svg">
<path fill-rule="evenodd" clip-rule="evenodd" d="M42.5844 6.41874C46.6951 2.30855 52.2702 -0.000342489 58.0832 3.81054e-08C63.8963 0.000342565 69.4711 2.30989 73.5813 6.42057C77.6915 10.5312 80.0003 16.1063 80 21.9194C79.9997 27.7324 77.6901 33.3072 73.5794 37.4174L37.4156 73.5813C33.3049 77.6915 27.7298 80.0003 21.9168 80C16.1037 79.9997 10.5289 77.6901 6.41874 73.5794C2.30855 69.4688 -0.000342489 63.8937 3.81054e-08 58.0806C0.000342565 52.2676 2.30989 46.6928 6.42057 42.5826L42.5844 6.41874ZM68.4106 32.2485L52.9149 47.7478L32.2503 27.0833L47.7497 11.5876C49.1007 10.2057 50.7125 9.10561 52.4916 8.35092C54.2708 7.59623 56.1819 7.20198 58.1145 7.191C60.0471 7.18002 61.9626 7.55251 63.7502 8.28693C65.5378 9.02134 67.162 10.1031 68.5286 11.4695C69.8953 12.8359 70.9773 14.4599 71.7121 16.2474C72.4468 18.0349 72.8196 19.9503 72.809 21.8829C72.7983 23.8155 72.4044 25.7267 71.6501 27.506C70.8957 29.2853 69.7958 30.8972 68.4142 32.2485" fill="#505B86"/>
</svg>
