<svg width="415" height="120" viewBox="0 0 415 120" fill="none" xmlns="http://www.w3.org/2000/svg">
<g filter="url(#filter0_d_219_161)">
<path fill-rule="evenodd" clip-rule="evenodd" d="M401.82 -0.506393C406.235 -0.682983 409.67 -4.405 409.494 -8.81975C409.317 -13.2345 405.595 -16.6702 401.18 -16.4936C398.255 -16.3766 394.4 -16.3005 389.733 -16.2084C349.001 -15.4047 246.375 -13.3796 159.089 27.7636C151.245 31.4608 142.883 35.6602 134.196 40.0228C116.673 48.8223 97.8285 58.2858 79.2491 65.6323C78.8222 63.5317 78.4928 61.2898 78.3254 58.9569C77.6717 49.8506 79.4883 39.6811 87.2506 30.8838C108.093 7.26251 133.699 3.15549 152.345 0.164822L153.295 0.0123692C156.021 -0.425808 157.876 -2.99124 157.438 -5.71767C157 -8.44411 154.434 -10.2991 151.708 -9.86093C151.266 -9.78987 150.817 -9.71814 150.363 -9.64546C131.694 -6.65875 102.988 -2.06654 79.7522 24.2676C69.7459 35.6081 67.5625 48.6886 68.351 59.6729C68.5929 63.043 69.1148 66.246 69.7871 69.1879C69.0017 69.4666 68.2173 69.7406 67.434 70.0097C45.253 77.6293 26.538 75.0155 13.8204 66.7443C1.19822 58.5351 -6.63192 44.0592 -5.97187 25.3578C-5.81603 20.9423 -9.26919 17.2365 -13.6847 17.0806C-18.1002 16.9248 -21.8061 20.378 -21.9619 24.7935C-22.8019 48.5921 -12.6479 68.6162 5.09702 80.1571C22.7465 91.6358 46.7815 94.022 72.6322 85.1417C73.5022 84.8428 74.3742 84.5378 75.248 84.227C76.189 86.0093 77.3999 88.4771 78.2123 91.1495C79.0937 94.0485 79.3285 96.6228 78.7627 98.6049C78.2898 100.262 77.097 102.121 73.5222 103.534C69.6965 105.047 63.2858 105.957 52.9166 105.093C37.6098 103.817 19.9883 103.992 4.72631 104.833C-10.4415 105.669 -23.6901 107.185 -30.1476 108.71C-32.8351 109.344 -34.4994 112.037 -33.8648 114.725C-33.2303 117.412 -30.5372 119.076 -27.8497 118.442C-22.3071 117.133 -9.80576 115.649 5.27644 114.818C20.2644 113.992 37.3929 113.834 52.0861 115.058C63.1427 115.98 71.3198 115.158 77.199 112.834C83.329 110.41 86.958 106.327 88.3787 101.35C89.7064 96.698 88.9066 91.9464 87.7799 88.2407C86.8819 85.287 85.6614 82.6339 84.6745 80.6846C104.391 72.9055 124.564 62.7771 142.475 53.7842L142.476 53.784C150.879 49.5649 158.784 45.5958 165.911 42.2364C249.77 2.70843 348.654 0.656799 389.862 -0.198166L389.862 -0.198177C394.673 -0.297985 398.697 -0.381481 401.82 -0.506393Z" fill="#FFFCF5"/>
</g>
<defs>
<filter id="filter0_d_219_161" x="-38.9998" y="-19.5001" width="453.5" height="145.077" filterUnits="userSpaceOnUse" color-interpolation-filters="sRGB">
<feFlood flood-opacity="0" result="BackgroundImageFix"/>
<feColorMatrix in="SourceAlpha" type="matrix" values="0 0 0 0 0 0 0 0 0 0 0 0 0 0 0 0 0 0 127 0" result="hardAlpha"/>
<feOffset dy="2"/>
<feGaussianBlur stdDeviation="2.5"/>
<feComposite in2="hardAlpha" operator="out"/>
<feColorMatrix type="matrix" values="0 0 0 0 0 0 0 0 0 0 0 0 0 0 0 0 0 0 0.25 0"/>
<feBlend mode="normal" in2="BackgroundImageFix" result="effect1_dropShadow_219_161"/>
<feBlend mode="normal" in="SourceGraphic" in2="effect1_dropShadow_219_161" result="shape"/>
</filter>
</defs>
</svg>
