<svg width="310" height="120" viewBox="0 0 310 120" fill="none" xmlns="http://www.w3.org/2000/svg">
<path fill-rule="evenodd" clip-rule="evenodd" d="M209.717 -18.5259C211.748 -19.2511 213.508 -19.8702 215.026 -20.3848V11.9402C215.026 16.0798 217.415 18.9071 219.741 20.4231C221.69 21.6932 223.874 22.2791 225.376 22.6135C227.408 23.066 230.18 23.4296 232.855 23.7807C234.036 23.9357 235.199 24.0882 236.271 24.2449C244.264 25.4128 252.937 27.4254 259.982 33.1491C274.422 44.8815 280.526 57.7216 280.526 71.9402C280.526 74.8886 280.496 77.2203 280.465 79.1016C280.458 79.5282 280.451 79.9398 280.444 80.3358L280.444 80.3408C280.421 81.6421 280.401 82.7729 280.401 83.7002C280.401 86.0237 280.461 88.6972 281.871 91.5179L282.216 92.2071L282.685 92.8179C285.072 95.92 287.799 98.7795 289.878 100.959L289.883 100.964C290.257 101.356 290.609 101.725 290.935 102.07C291.638 102.815 292.194 103.419 292.628 103.918C292.531 104.214 292.418 104.544 292.286 104.907C291.537 106.98 290.381 109.655 288.966 112.474C287.553 115.289 285.954 118.101 284.358 120.481C282.687 122.972 281.313 124.545 280.432 125.272L280.176 125.484C276.781 128.289 273.438 131.052 267.543 132.954C261.386 134.941 251.803 136.154 236.107 134.014C231.73 133.417 227.697 136.481 227.1 140.859C226.503 145.237 229.568 149.27 233.946 149.867C251.25 152.226 263.381 151.109 272.456 148.181C281.295 145.329 286.616 140.923 290.202 137.955L290.202 137.955L290.233 137.929L290.236 137.926C290.367 137.819 290.495 137.713 290.621 137.609C293.276 135.416 295.669 132.341 297.646 129.394C299.697 126.336 301.625 122.92 303.265 119.652C304.904 116.389 306.328 113.127 307.333 110.347C307.832 108.966 308.273 107.581 308.577 106.302C308.807 105.333 309.239 103.361 308.946 101.309C308.528 98.3848 306.849 96.102 306.036 95.0414C305.005 93.6962 303.728 92.3134 302.568 91.0856C302.152 90.6451 301.737 90.2083 301.322 89.7731L301.322 89.7723C299.625 87.9893 297.953 86.2334 296.408 84.3658C296.404 84.1823 296.401 83.9621 296.401 83.7002C296.401 82.9237 296.418 81.99 296.44 80.7356V80.7353V80.7348V80.7339C296.447 80.315 296.455 79.8603 296.463 79.3637C296.495 77.43 296.526 75.0051 296.526 71.9402C296.526 52.1587 287.631 34.9988 270.071 20.7312C259.52 12.1584 247.193 9.67098 238.585 8.41303C236.74 8.14351 235.201 7.94407 233.879 7.7729C232.798 7.63281 231.863 7.51167 231.026 7.38655V-29.0598C231.026 -30.9327 230.458 -33.3051 228.588 -35.2885C226.851 -37.1317 224.781 -37.7892 223.447 -38.036C221.05 -38.479 218.653 -38.0245 217.206 -37.7042C213.915 -36.9756 209.396 -35.4011 204.336 -33.5938C196.442 -30.7747 186.438 -25.1111 177.344 -19.3014C170.005 -14.6125 162.873 -9.57756 157.351 -5.33088C145.422 -11.5599 131.207 -14.5598 115.027 -14.5598C79.0981 -14.5597 45.4896 6.8835 21.949 40.8865C-1.66441 74.9949 -0.0809212 104.854 2.11954 119.157C2.45001 121.305 3.99916 129.512 10.1951 137.919C16.5702 146.569 27.4862 154.89 45.4334 157.365C62.3136 159.694 75.1342 154.463 83.9573 147.749C92.5065 141.242 97.3691 133.314 98.9383 129.451C102.37 121.003 104.596 113.381 106.981 104.843C107.267 103.822 107.554 102.787 107.847 101.734L107.847 101.734C110.008 93.9626 112.445 85.1983 116.13 73.9261C122.649 53.9864 136.841 35.4393 143.683 28.5971C146.808 25.4729 146.808 20.4076 143.683 17.2834C140.559 14.1592 135.494 14.1592 132.37 17.2834C124.212 25.4411 108.404 46.0708 100.923 68.9543C97.1201 80.5852 94.5915 89.6803 92.4289 97.4588L92.4288 97.459L92.4261 97.4688C92.1354 98.5145 91.8513 99.5364 91.5716 100.537C89.2073 108.999 87.1826 115.878 84.1148 123.429C83.58 124.746 80.4426 130.317 74.2678 135.016C68.3668 139.507 59.7393 143.187 47.6196 141.515C34.0667 139.646 26.9607 133.699 23.075 128.427C19.01 122.911 18.0592 117.541 17.9335 116.724C16.1339 105.026 14.535 79.7048 35.1041 49.9939C56.5635 18.9969 85.763 1.44025 115.027 1.44022C131.175 1.4402 143.851 4.83106 153.523 10.9032C163.124 16.9303 170.342 25.9571 175.053 38.2939C179.003 48.6396 180.157 55.3418 180.629 59.7321C180.75 60.8637 180.83 61.8798 180.901 62.8453C180.913 63.0079 180.925 63.1746 180.937 63.3438C180.993 64.1189 181.052 64.9477 181.126 65.6892C181.287 67.3198 181.615 70.1502 183.297 72.7663C185.876 76.7776 190.47 79.9779 194.732 82.6895C196.549 83.8462 199.888 85.6254 203.344 87.4668L203.346 87.4676L203.346 87.4679L203.347 87.4682C204.676 88.1764 206.023 88.8939 207.307 89.5886C212.49 92.3936 216.914 94.9572 218.961 96.6319L219.651 97.1968L219.794 97.2682C220.184 97.8661 221.472 100.536 218.961 107.84C213.854 122.696 204.134 137.328 185.184 140.554C163.085 144.315 146.761 142.294 130.664 128.808C127.278 125.971 122.232 126.416 119.394 129.802C116.557 133.189 117.002 138.235 120.389 141.072C141.292 158.586 162.968 160.565 187.869 156.327C215.326 151.653 228.199 130.185 234.092 113.041C238.942 98.9325 235.688 88.0556 228.488 83.7678C224.982 81.0558 219.491 77.9896 214.922 75.5169C213.162 74.5646 211.517 73.6886 210.035 72.8989C206.966 71.2641 204.591 69.9989 203.322 69.191C199.579 66.8092 197.831 65.3491 197.096 64.5426C197.081 64.4256 197.065 64.2834 197.048 64.1132C196.998 63.6059 196.957 63.0493 196.903 62.293L196.873 61.8838L196.858 61.6778C196.783 60.6491 196.687 59.4231 196.537 58.0234C195.921 52.2887 194.45 44.2409 190 32.5866C185.686 21.2884 179.434 11.7612 171.191 4.28849C175.569 1.08064 180.687 -2.4506 185.959 -5.81824C194.865 -11.5085 203.611 -16.3449 209.717 -18.5259ZM293.634 105.203C293.631 105.202 293.608 105.167 293.572 105.1C293.618 105.17 293.636 105.204 293.634 105.203ZM293.068 102.339C293.075 102.274 293.082 102.238 293.083 102.235C293.085 102.233 293.082 102.266 293.068 102.339ZM248.526 80.9402C248.526 75.4174 253.004 70.9402 258.526 70.9402H259.526C265.049 70.9402 269.526 75.4174 269.526 80.9402C269.526 86.4631 265.049 90.9402 259.526 90.9402H258.526C253.004 90.9402 248.526 86.4631 248.526 80.9402ZM160.526 67.9402C155.004 67.9402 150.526 72.4174 150.526 77.9402C150.526 83.4631 155.004 87.9402 160.526 87.9402H161.026C166.549 87.9402 171.026 83.4631 171.026 77.9402C171.026 72.4174 166.549 67.9402 161.026 67.9402H160.526Z" fill="#FFFCF5"/>
</svg>
