<svg width="50" height="51" viewBox="0 0 50 51" fill="none" xmlns="http://www.w3.org/2000/svg">
<path d="M12.5012 1.09228C15.6642 3.39879 18.0584 6.63942 20.0969 9.61709L21.6947 11.9662C22.1909 12.6913 22.4179 13.5672 22.3365 14.442C22.2551 15.3169 21.8704 16.1358 21.2489 16.757L17.853 20.1529L18.2112 20.9142C19.0877 22.6898 20.6003 25.2467 22.8768 27.5257C24.4512 29.071 26.2229 30.4014 28.1459 31.4826L29.065 31.9759L29.8839 32.3816L30.2496 32.5494L33.643 29.1535C34.2661 28.5298 35.0887 28.1452 35.9668 28.0669C36.845 27.9886 37.7227 28.2217 38.4463 28.7253L40.9857 30.4858C43.8707 32.5144 46.8835 34.8259 49.225 37.8261C49.6298 38.3468 49.8873 38.9666 49.9705 39.6208C50.0538 40.275 49.9598 40.9396 49.6983 41.545C47.6022 46.436 42.298 50.6008 36.7809 50.3954L36.0296 50.3553L35.4461 50.3053L34.8 50.2301L34.0963 50.135L33.3324 50.0072L32.516 49.847L31.6495 49.6541L30.7329 49.4187L29.7687 49.1432L28.762 48.8177C24.139 47.25 18.2713 44.1696 12.2508 38.1492C6.23035 32.1287 3.1525 26.2635 1.58478 21.6405L1.25922 20.6337L0.983736 19.6695L0.748328 18.753L0.552988 17.8865C0.496634 17.6151 0.444038 17.3429 0.395214 17.07L0.269997 16.3062L0.169823 15.6025L0.0971968 14.9564L0.0471096 14.3728L0.00704018 13.6215C-0.195812 8.12199 4.014 2.78021 8.88246 0.69409C9.46842 0.441068 10.1101 0.344735 10.7445 0.414543C11.3789 0.484352 11.9843 0.717904 12.5012 1.09228ZM10.1797 5.62015C7.49505 7.02258 4.89553 10.2282 5.01324 13.4362L5.06332 14.2576L5.11842 14.771L5.19104 15.347L5.29122 15.9806L5.41894 16.6743L5.58172 17.4206L5.78207 18.222L6.02249 19.071L6.30798 19.9676C6.41317 20.2731 6.52503 20.5861 6.64357 20.9067L7.02924 21.8884L7.47 22.9077C9.04274 26.3687 11.6072 30.4207 15.797 34.608C19.9842 38.7953 24.0363 41.3622 27.4973 42.935L28.5166 43.3757L29.4983 43.7614C29.8188 43.8816 30.1319 43.9935 30.4374 44.097L31.334 44.3825L32.1854 44.6229L32.9843 44.8232L33.7306 44.986L34.4243 45.1137L35.0604 45.2139L35.6364 45.2891L36.1473 45.3391L36.9687 45.3892C40.1342 45.5069 43.3649 42.9224 44.7623 40.2728C42.9792 38.1817 40.7653 36.4662 38.3236 34.7382L36.4503 33.4335L35.9745 33.9318L34.9577 35.0412L34.4193 35.6072C32.9518 37.1023 31.2388 38.372 29.1852 37.5431L28.6192 37.3052L27.928 36.9946L27.5424 36.8118L26.6959 36.3886L25.7668 35.8877C23.4178 34.5758 21.2555 32.9543 19.3381 31.0668C17.4506 29.1494 15.8292 26.9872 14.5172 24.6382L14.0164 23.7116L13.5906 22.8626L13.0998 21.7857L12.8594 21.2147C12.0805 19.2889 13.1524 17.6636 14.5223 16.2561L15.0832 15.7052L16.4781 14.4204L16.979 13.9446L15.7945 12.2091C14.0339 9.65465 12.3134 7.35065 10.1772 5.61764L10.1797 5.62015ZM32.8766 10.0954L33.1671 10.128C34.9901 10.4495 36.6644 11.3399 37.9502 12.6716C39.2359 14.0032 40.0671 15.7078 40.3246 17.5409C40.4164 18.1749 40.2617 18.82 39.8923 19.3435C39.5229 19.867 38.967 20.229 38.3389 20.355C37.7108 20.4811 37.0582 20.3617 36.5154 20.0213C35.9727 19.6809 35.581 19.1454 35.4211 18.5251L35.3635 18.2371C35.2627 17.5186 34.956 16.8446 34.4805 16.2967C34.005 15.7487 33.3809 15.3502 32.6838 15.1492L32.2956 15.0615C31.6668 14.9501 31.1043 14.6026 30.7231 14.0901C30.342 13.5777 30.1711 12.9389 30.2453 12.3046C30.3195 11.6703 30.6333 11.0883 31.1224 10.6776C31.6115 10.267 32.239 10.0587 32.8766 10.0954ZM32.8942 2.4822C36.8793 2.4822 40.7013 4.0653 43.5192 6.88324C46.3372 9.70118 47.9203 13.5231 47.9203 17.5083C47.9196 18.1466 47.6751 18.7606 47.237 19.2247C46.7988 19.6888 46.1999 19.9682 45.5627 20.0056C44.9255 20.043 44.298 19.8357 43.8085 19.426C43.3191 19.0163 43.0045 18.4351 42.9291 17.8013L42.9116 17.5083C42.9113 14.9653 41.9439 12.5175 40.2055 10.6615C38.4671 8.80543 36.0879 7.68 33.5503 7.51343L32.8942 7.4909C32.23 7.4909 31.593 7.22705 31.1233 6.75739C30.6537 6.28773 30.3898 5.65074 30.3898 4.98655C30.3898 4.32235 30.6537 3.68536 31.1233 3.2157C31.593 2.74605 32.23 2.4822 32.8942 2.4822Z" fill="#374375"/>
</svg>
