<svg width="88" height="88" viewBox="0 0 88 88" fill="none" xmlns="http://www.w3.org/2000/svg">
<path d="M84 44C84 66.092 66.092 84 44 84C21.908 84 4 66.092 4 44C4 21.908 21.908 4 44 4C66.092 4 84 21.908 84 44Z" stroke="#986C73" stroke-width="8" stroke-linecap="round" stroke-linejoin="round"/>
<path d="M71.412 14.868C68.152 33.688 51.748 48 32 48C21.8083 48.0136 11.9982 44.1247 4.58398 37.132M83.24 36.2C74.772 54.952 55.908 68 34 68C24.8787 68.0139 15.9038 65.7069 7.91998 61.296M10.616 21.952C14.3635 24.9173 18.8075 26.8745 23.5251 27.6372C28.2427 28.4 33.077 27.9429 37.5681 26.3096C42.0592 24.6763 46.0576 21.921 49.1831 18.3058C52.3085 14.6907 54.4569 10.336 55.424 5.65596" stroke="#986C73" stroke-width="8" stroke-linecap="round" stroke-linejoin="round"/>
</svg>
