<svg width="16" height="18" viewBox="0 0 16 18" fill="none" xmlns="http://www.w3.org/2000/svg">
<path d="M13.2 6.33333L12.472 13.7982C12.3619 14.9298 12.3073 15.4951 12.056 15.9227C11.8356 16.299 11.5114 16.6 11.1243 16.7876C10.6849 17 10.132 17 9.02267 17H6.97733C5.86887 17 5.31507 17 4.87567 16.7867C4.48831 16.5992 4.1638 16.2983 3.94313 15.9218C3.69353 15.4951 3.63807 14.9298 3.52713 13.7982L2.8 6.33333M9.3 12.1111V7.66667M6.7 12.1111V7.66667M1.5 4.11111H5.49967M5.49967 4.11111L5.8342 1.736C5.93127 1.304 6.2814 1 6.68353 1H9.31647C9.7186 1 10.0679 1.304 10.1658 1.736L10.5003 4.11111M5.49967 4.11111H10.5003M10.5003 4.11111H14.5" stroke="#A6A6A6" stroke-width="1.5" stroke-linecap="round" stroke-linejoin="round"/>
</svg>
