<svg width="66" height="66" viewBox="0 0 66 66" fill="none" xmlns="http://www.w3.org/2000/svg">
<path d="M33 65.5C50.9493 65.5 65.5 50.9493 65.5 33C65.5 15.0507 50.9493 0.5 33 0.5C15.0507 0.5 0.5 15.0507 0.5 33C0.5 50.9493 15.0507 65.5 33 65.5Z" fill="#9195DF"/>
<path d="M49.8848 23.0215C48.6914 23.5483 47.4155 23.9038 46.0698 24.0688C47.4409 23.2437 48.4946 21.9424 48.9897 20.3936C47.7075 21.1426 46.2793 21.6885 44.7686 21.9932C43.5562 20.6982 41.8359 19.8857 39.9189 19.8857C36.25 19.8857 33.2729 22.8628 33.2729 26.5254C33.2729 27.0522 33.3364 27.5601 33.4443 28.0425C27.9219 27.7822 23.0215 25.1289 19.7461 21.1172C19.1685 22.0947 18.8447 23.2246 18.8447 24.4624C18.8447 26.7729 20.019 28.8042 21.8027 29.9976C20.7109 29.9595 19.689 29.6611 18.7939 29.166V29.2485C18.7939 32.4731 21.0791 35.1582 24.126 35.7676C23.5674 35.9199 22.9771 35.9961 22.374 35.9961C21.9487 35.9961 21.5425 35.958 21.1362 35.8818C21.9868 38.5225 24.437 40.4458 27.3569 40.4966C25.0908 42.2803 22.209 43.3403 19.1177 43.3403C18.5908 43.3403 18.064 43.3086 17.5371 43.2515C20.4951 45.1367 23.98 46.2349 27.7441 46.2349C39.9634 46.2349 46.6475 36.1103 46.6475 27.3442C46.6475 27.0649 46.6475 26.7793 46.6284 26.4937C47.9233 25.5605 49.0596 24.3862 49.9482 23.0532L49.8848 23.0215Z" fill="white"/>
</svg>
