<svg width="66" height="66" viewBox="0 0 66 66" fill="none" xmlns="http://www.w3.org/2000/svg">
<path d="M33 65.5C50.9493 65.5 65.5 50.9493 65.5 33C65.5 15.0507 50.9493 0.5 33 0.5C15.0507 0.5 0.5 15.0507 0.5 33C0.5 50.9493 15.0507 65.5 33 65.5Z" fill="#9195DF"/>
<path d="M37.6865 17.7339H28.3135C19.7594 17.7339 17.7339 19.7594 17.7339 28.3135V37.6865C17.7339 46.2406 19.7594 48.2661 28.3135 48.2661H37.6865C46.2406 48.2661 48.2661 46.2406 48.2661 37.6865V28.3135C48.2661 19.7594 46.219 17.7339 37.6865 17.7339ZM42.3837 39.5178H40.1621C39.3216 39.5178 39.0633 38.85 37.5551 37.3202C36.2405 36.0507 35.659 35.8768 35.3334 35.8768C34.8808 35.8768 34.7513 36.0037 34.7513 36.6309V38.6348C34.7513 39.1737 34.5787 39.4968 33.1568 39.4968C30.8082 39.4968 28.2012 38.075 26.3692 35.4242C23.6112 31.5458 22.8571 28.6366 22.8571 28.0336C22.8571 27.7105 22.984 27.409 23.6112 27.409H25.8329C26.3934 27.409 26.6085 27.6673 26.8237 28.271C27.9225 31.4385 29.7544 34.2181 30.5054 34.2181C30.7853 34.2181 30.9148 34.0912 30.9148 33.3777V30.1023C30.8285 28.5941 30.0312 28.4646 30.0312 27.9263C30.0312 27.668 30.2464 27.409 30.5917 27.409H34.0829C34.5571 27.409 34.7291 27.6673 34.7291 28.2278V32.6445C34.7291 33.1187 34.9443 33.2907 35.0738 33.2907C35.3537 33.2907 35.5911 33.1181 36.1078 32.6014C37.7023 30.8132 38.8443 28.0552 38.8443 28.0552C38.9954 27.7321 39.2537 27.4306 39.8142 27.4306H42.0359C42.7037 27.4306 42.8547 27.7752 42.7037 28.2494C42.4237 29.5424 39.7088 33.3777 39.7088 33.3777C39.4721 33.7655 39.3857 33.9382 39.7088 34.3686C39.9456 34.6917 40.7245 35.3594 41.2386 35.9631C42.187 37.0422 42.9195 37.9455 43.1131 38.5701C43.3321 39.1947 43.0084 39.5178 42.3837 39.5178Z" fill="white"/>
</svg>
