<svg width="30" height="31" viewBox="0 0 30 31" fill="none" xmlns="http://www.w3.org/2000/svg">
<path d="M26.2475 13C26.2325 10.2813 26.1125 8.80875 25.1513 7.84875C24.0538 6.75 22.285 6.75 18.75 6.75H15C11.465 6.75 9.69625 6.75 8.59875 7.84875C7.5 8.94625 7.5 10.715 7.5 14.25V20.5C7.5 24.035 7.5 25.8038 8.59875 26.9013C9.69625 28 11.465 28 15 28H18.75C22.285 28 24.0538 28 25.1513 26.9013C26.25 25.8038 26.25 24.035 26.25 20.5V19.25" stroke="black" stroke-width="1.5" stroke-linecap="round"/>
<path d="M3.75 13V20.5C3.75 21.4946 4.14509 22.4484 4.84835 23.1517C5.55161 23.8549 6.50544 24.25 7.5 24.25M22.5 6.75C22.5 5.75544 22.1049 4.80161 21.4017 4.09835C20.6984 3.39509 19.7446 3 18.75 3H13.75C9.03625 3 6.67875 3 5.215 4.465C4.3975 5.28125 4.03625 6.375 3.8775 8" stroke="black" stroke-width="1.5" stroke-linecap="round"/>
</svg>
