<svg width="20" height="19" viewBox="0 0 20 19" fill="none" xmlns="http://www.w3.org/2000/svg">
<g clip-path="url(#clip0_474_3874)">
<path d="M17.3461 5.0667L9.7936 12.6192C9.04152 13.3712 6.80899 13.7196 6.31024 13.2208C5.81149 12.7221 6.15191 10.4896 6.90399 9.73749L14.4644 2.17709C14.6509 1.97368 14.8766 1.81017 15.128 1.69641C15.3794 1.58264 15.6512 1.52097 15.9271 1.51516C16.2029 1.50936 16.4772 1.5595 16.7331 1.66259C16.9891 1.76567 17.2215 1.91957 17.4163 2.11495C17.6112 2.31034 17.7644 2.54316 17.8668 2.7994C17.9691 3.05563 18.0186 3.32995 18.0121 3.6058C18.0055 3.88166 17.943 4.15335 17.8286 4.40443C17.7141 4.65551 17.55 4.88081 17.3461 5.0667Z" stroke="#F9F9FD" stroke-width="2" stroke-linecap="round" stroke-linejoin="round"/>
<path d="M9.20801 3.16666H5.24967C4.40982 3.16666 3.60442 3.50028 3.01055 4.09415C2.41669 4.68802 2.08301 5.49347 2.08301 6.33332V14.25C2.08301 15.0899 2.41669 15.8953 3.01055 16.4891C3.60442 17.083 4.40982 17.4167 5.24967 17.4167H13.958C15.7076 17.4167 16.333 15.9917 16.333 14.25V10.2917" stroke="#F9F9FD" stroke-width="2" stroke-linecap="round" stroke-linejoin="round"/>
</g>
<defs>
<clipPath id="clip0_474_3874">
<rect width="19" height="19" fill="white" transform="translate(0.5)"/>
</clipPath>
</defs>
</svg>
