<svg width="33" height="33" viewBox="0 0 33 33" fill="none" xmlns="http://www.w3.org/2000/svg">
<path d="M16.5 4.125C16.8505 4.12539 17.1875 4.25958 17.4424 4.50017C17.6972 4.74075 17.8506 5.06956 17.8711 5.41942C17.8917 5.76928 17.7778 6.11377 17.5529 6.38252C17.3279 6.65127 17.0089 6.82398 16.6609 6.86538L16.5 6.875H9.625C9.28822 6.87504 8.96316 6.99869 8.71149 7.22248C8.45982 7.44628 8.29903 7.75465 8.25962 8.08912L8.25 8.25V24.75C8.25004 25.0868 8.37369 25.4118 8.59748 25.6635C8.82128 25.9152 9.12965 26.076 9.46412 26.1154L9.625 26.125H15.8125C16.163 26.1254 16.5 26.2596 16.7549 26.5002C17.0097 26.7407 17.1631 27.0696 17.1836 27.4194C17.2042 27.7693 17.0903 28.1138 16.8654 28.3825C16.6404 28.6513 16.3214 28.824 15.9734 28.8654L15.8125 28.875H9.625C8.57284 28.8751 7.56042 28.4731 6.79489 27.7512C6.02937 27.0294 5.5686 26.0424 5.50688 24.992L5.5 24.75V8.25C5.49994 7.19784 5.90195 6.18542 6.62376 5.41989C7.34558 4.65437 8.33265 4.1936 9.383 4.13188L9.625 4.125H16.5ZM24.3471 11.638L28.2356 15.5279C28.4934 15.7857 28.6382 16.1354 28.6382 16.5C28.6382 16.8646 28.4934 17.2143 28.2356 17.4721L24.3471 21.362C24.0891 21.6198 23.7393 21.7646 23.3745 21.7645C23.0098 21.7643 22.66 21.6193 22.4022 21.3613C22.1444 21.1033 21.9996 20.7534 21.9997 20.3887C21.9999 20.024 22.1449 19.6742 22.4029 19.4164L23.9443 17.875H16.5C16.1353 17.875 15.7856 17.7301 15.5277 17.4723C15.2699 17.2144 15.125 16.8647 15.125 16.5C15.125 16.1353 15.2699 15.7856 15.5277 15.5277C15.7856 15.2699 16.1353 15.125 16.5 15.125H23.9443L22.4029 13.5836C22.1449 13.3258 21.9999 12.976 21.9997 12.6113C21.9996 12.2466 22.1444 11.8967 22.4022 11.6387C22.66 11.3807 23.0098 11.2357 23.3745 11.2355C23.7393 11.2354 24.0891 11.3802 24.3471 11.638Z" fill="#A0A0A0"/>
</svg>
