<svg width="66" height="66" viewBox="0 0 66 66" fill="none" xmlns="http://www.w3.org/2000/svg">
<path d="M33 65.5C50.9493 65.5 65.5 50.9493 65.5 33C65.5 15.0507 50.9493 0.5 33 0.5C15.0507 0.5 0.5 15.0507 0.5 33C0.5 50.9493 15.0507 65.5 33 65.5Z" fill="#9195DF"/>
<path d="M35.5391 49.1484V37.7988H39.3286L40.0522 33.1016H35.5454V30.0547C35.5454 28.7725 36.1738 27.5156 38.1924 27.5156H40.2363V23.5166C40.2363 23.5166 38.3765 23.1992 36.5991 23.1992C32.8857 23.1992 30.4609 25.4463 30.4609 29.5215V33.1016H26.335V37.7988H30.4609V49.1548C22.6914 47.936 16.75 41.2139 16.75 33.1016C16.75 24.126 24.0244 16.8516 33 16.8516C41.9756 16.8516 49.25 24.126 49.25 33.1016C49.25 41.2075 43.3086 47.9297 35.5391 49.1484Z" fill="white"/>
</svg>
