<svg width="80" height="80" viewBox="0 0 80 80" fill="none" xmlns="http://www.w3.org/2000/svg">
<path d="M54.8468 7.99827C58.1662 7.99827 61.3256 8.87808 64.0051 10.6377C68.5642 13.5971 71.3637 18.1161 72.0035 23.3549C72.2323 25.8926 71.9033 28.4495 71.0398 30.8467C70.1763 33.2438 68.799 35.4231 67.0045 37.2319C64.205 39.9913 60.6457 41.751 56.7265 42.1509C49.0879 42.9507 42.3692 45.99 37.3702 51.0689C36.7654 51.6577 35.9546 51.9871 35.1106 51.9871C34.2665 51.9871 33.4558 51.6577 32.851 51.0689L28.8918 47.1098C28.6114 46.8329 28.3891 46.5028 28.238 46.1388C28.087 45.7748 28.0101 45.3843 28.012 44.9903C28.012 43.9905 28.4519 43.1107 29.2917 42.2708C34.1308 37.3919 37.0902 30.9133 37.8101 23.4749C38.33 18.1561 41.1694 13.5971 45.8085 10.5977C48.448 8.87808 51.5674 7.99827 54.8468 7.99827ZM54.8468 0C50.1677 0 45.4886 1.27972 41.4494 3.87916C34.4107 8.39818 30.5315 15.4367 29.8516 22.7151C29.3317 27.9939 27.3321 32.9129 23.6528 36.5921L23.5328 36.7121C18.8937 41.351 18.8937 48.4295 23.2529 52.7486L27.2121 56.7077C29.4117 58.9072 32.2511 59.987 35.0906 59.987C37.9301 59.987 40.8095 58.9072 43.0091 56.7077C46.8883 52.8286 52.0074 50.709 57.5663 50.1091C63.0452 49.5093 68.4042 47.1098 72.6434 42.9107C75.303 40.2548 77.3315 37.035 78.5789 33.4894C79.8263 29.9439 80.2606 26.1632 79.8497 22.4272C79.4389 18.6911 78.1933 15.0952 76.2053 11.9054C74.2172 8.71566 71.5375 6.0136 68.3642 3.99913C64.325 1.31971 59.6059 0 54.8468 0ZM17.0541 71.4245C18.1338 73.6641 17.7739 76.3835 15.8943 78.2231C15.0802 79.0494 14.0427 79.6202 12.9089 79.8653C11.7751 80.1105 10.5944 80.0195 9.51165 79.6034C8.42888 79.1873 7.4911 78.4642 6.81335 77.5228C6.1356 76.5814 5.74735 75.4627 5.69623 74.3039C4.53737 74.2528 3.41863 73.8645 2.47724 73.1868C1.53586 72.5091 0.812748 71.5713 0.396624 70.4886C-0.0195009 69.4058 -0.110549 68.2252 0.134649 67.0914C0.379847 65.9577 0.950627 64.9202 1.77698 64.1061C3.61662 62.2665 6.3761 61.8666 8.57568 62.9464L18.4938 53.2285C19.0537 53.9883 19.6935 54.8681 20.4134 55.588L24.3727 59.5471C25.2125 60.3469 26.0123 61.0268 27.0521 61.6267L17.0541 71.4245Z" fill="#9498E0"/>
</svg>
