<svg width="66" height="66" viewBox="0 0 66 66" fill="none" xmlns="http://www.w3.org/2000/svg">
<path d="M33 65.5C50.9493 65.5 65.5 50.9493 65.5 33C65.5 15.0507 50.9493 0.5 33 0.5C15.0507 0.5 0.5 15.0507 0.5 33C0.5 50.9493 15.0507 65.5 33 65.5Z" fill="#9195DF"/>
<path d="M33 16.75C28.5884 16.75 28.0361 16.769 26.3032 16.8452C24.5703 16.9277 23.396 17.2007 22.3613 17.6006C21.2949 18.0132 20.3872 18.5718 19.4795 19.4731C18.5718 20.3745 18.0195 21.2822 17.6069 22.355C17.207 23.3896 16.9341 24.5703 16.8516 26.2969C16.769 28.0298 16.7563 28.582 16.7563 32.9937C16.7563 37.4053 16.7754 37.9575 16.8516 39.6904C16.9341 41.417 17.207 42.5977 17.6069 43.6323C18.0195 44.6987 18.5781 45.6065 19.4795 46.5142C20.3809 47.4155 21.2886 47.9741 22.3613 48.3867C23.396 48.7866 24.5767 49.0596 26.3032 49.1421C28.0361 49.2246 28.5884 49.2373 33 49.2373C37.4116 49.2373 37.9639 49.2183 39.6968 49.1421C41.4233 49.0596 42.604 48.7866 43.6387 48.3867C44.7051 47.9741 45.6128 47.4155 46.5205 46.5142C47.4219 45.6128 47.9805 44.7051 48.3931 43.6323C48.793 42.5977 49.0659 41.417 49.1484 39.6904C49.231 37.9575 49.2437 37.4053 49.2437 32.9937C49.2437 28.582 49.2246 28.0298 49.1484 26.2969C49.0659 24.5703 48.793 23.3896 48.3931 22.355C47.9805 21.2886 47.4219 20.3809 46.5205 19.4731C45.6191 18.5718 44.7114 18.0132 43.6387 17.6006C42.604 17.2007 41.4233 16.9277 39.6968 16.8452C37.9639 16.769 37.4116 16.75 33 16.75ZM33 19.6763C37.3355 19.6763 37.856 19.6953 39.5698 19.7715C41.1567 19.8477 42.0137 20.1079 42.585 20.3364C43.3467 20.6284 43.8862 20.9839 44.4575 21.5488C45.0225 22.1201 45.3779 22.6597 45.6699 23.4214C45.8921 23.9927 46.1587 24.8496 46.2285 26.4365C46.3047 28.1504 46.3237 28.6646 46.3237 33.0063C46.3237 37.3481 46.3047 37.8623 46.2222 39.5762C46.1397 41.1631 45.873 42.02 45.6509 42.5913C45.3462 43.353 45.0034 43.8926 44.4321 44.4639C43.8672 45.0288 43.3149 45.3843 42.5659 45.6763C41.9946 45.8984 41.125 46.165 39.5381 46.2349C37.8115 46.311 37.3037 46.3301 32.9556 46.3301C28.6074 46.3301 28.0996 46.311 26.373 46.2285C24.7861 46.146 23.9165 45.8794 23.3452 45.6572C22.5771 45.3525 22.0439 45.0098 21.479 44.4385C20.9077 43.8735 20.5459 43.3213 20.2603 42.5723C20.0381 42.001 19.7715 41.1313 19.689 39.5444C19.6255 37.8369 19.6064 37.3101 19.6064 32.9873C19.6064 28.6582 19.6255 28.1313 19.689 26.4048C19.7715 24.8179 20.0317 23.9482 20.2603 23.377C20.5459 22.6025 20.9077 22.0757 21.479 21.5044C22.0439 20.9395 22.5771 20.5713 23.3452 20.2856C23.9165 20.0635 24.7671 19.7969 26.354 19.7144C28.0806 19.6509 28.5884 19.6318 32.9365 19.6318L33 19.6763ZM33 24.6528C28.3916 24.6528 24.6528 28.3916 24.6528 33C24.6528 37.6084 28.3916 41.3472 33 41.3472C37.6084 41.3472 41.3472 37.6084 41.3472 33C41.3472 28.3916 37.6084 24.6528 33 24.6528ZM33 38.4146C30.0103 38.4146 27.5855 35.9897 27.5855 33C27.5855 30.0103 30.0103 27.5855 33 27.5855C35.9897 27.5855 38.4146 30.0103 38.4146 33C38.4146 35.9897 35.9897 38.4146 33 38.4146ZM43.626 24.3291C43.626 25.4082 42.75 26.2778 41.6772 26.2778C40.5981 26.2778 39.7285 25.4019 39.7285 24.3291C39.7285 23.2563 40.6045 22.3804 41.6772 22.3804C42.75 22.374 43.626 23.25 43.626 24.3291Z" fill="white"/>
</svg>
