<svg width="22" height="17" viewBox="0 0 22 17" fill="none" xmlns="http://www.w3.org/2000/svg">
<path d="M6.79146 13.7384L2.23495 9.04721C1.98943 8.79443 1.65643 8.65242 1.3092 8.65242C0.961981 8.65242 0.62898 8.79443 0.383457 9.04721C0.137934 9.29999 0 9.64284 0 10.0003C0 10.1773 0.0338638 10.3526 0.0996575 10.5162C0.165451 10.6797 0.261886 10.8283 0.383457 10.9534L5.87228 16.6046C6.3844 17.1318 7.21166 17.1318 7.72378 16.6046L21.6165 2.30103C21.8621 2.04825 22 1.7054 22 1.34791C22 0.990424 21.8621 0.647577 21.6165 0.394795C21.371 0.142012 21.038 0 20.6908 0C20.3436 0 20.0106 0.142012 19.7651 0.394795L6.79146 13.7384Z" fill="white"/>
</svg>
