<svg width="280" height="120" viewBox="0 0 280 120" fill="none" xmlns="http://www.w3.org/2000/svg">
<g filter="url(#filter0_d_219_158)">
<path fill-rule="evenodd" clip-rule="evenodd" d="M7.90505 126.226C5.54461 127.659 4.79288 130.734 6.226 133.095C7.65911 135.455 10.7344 136.207 13.0948 134.774C30.5889 124.153 42.4728 117.625 51.5529 113.954C60.485 110.342 66.389 109.625 72.0158 110.378C77.5629 111.12 83.0987 113.289 91.4264 116.551L91.4266 116.551C92.0604 116.8 92.7103 117.054 93.3776 117.315C102.637 120.934 114.565 125.433 131.718 129.725C171.738 139.74 194.007 110.329 204.369 96.6441C204.935 95.8955 205.467 95.194 205.963 94.5486C212.824 85.6288 216.824 77.8109 219.065 70.6403C221.133 64.0236 221.638 58.1624 221.665 52.8268C225.473 50.1965 229.078 47.5769 232.444 45.1307L232.452 45.1253C233.24 44.5524 234.016 43.989 234.777 43.4372C239.658 39.9023 243.948 36.8687 247.957 34.4843C256.122 29.6277 261.366 28.5403 265.949 30.0822C274.955 33.1127 281.692 40.7005 286.16 52.4866C290.647 64.3239 292.467 79.5466 291.989 95.814C291.512 112.005 288.774 128.735 284.541 143.328C280.262 158.081 274.659 169.949 268.882 176.938C266.067 180.343 266.546 185.386 269.952 188.201C273.357 191.016 278.4 190.537 281.215 187.132C288.985 177.731 295.354 163.488 299.908 147.785C304.509 131.924 307.465 113.855 307.982 96.2844C308.496 78.7899 306.607 61.2872 301.121 46.8149C295.615 32.2913 286.112 19.9854 271.051 14.9177C259.616 11.0698 249.038 15.2251 239.778 20.7329C235.074 23.5307 230.251 26.9597 225.392 30.4791C224.593 31.0582 223.791 31.6407 222.985 32.2259C222.566 32.5302 222.146 32.8353 221.725 33.1409C222.21 29.5173 223.267 25.8844 225.414 21.8481C234.987 3.85228 249.361 -6.4185 263.218 -11.3894C277.313 -16.4454 290.321 -15.8491 296.99 -12.9216C299.519 -11.8117 302.468 -12.9618 303.578 -15.4903C304.688 -18.0189 303.538 -20.9684 301.01 -22.0783C291.328 -26.3283 275.552 -26.4376 259.842 -20.8021C243.895 -15.0816 227.445 -3.26373 216.586 17.1519C212.043 25.6926 211.282 33.4194 211.335 40.5121C210.878 40.8235 210.419 41.1348 209.957 41.4457C188.477 55.9018 161.414 69.0844 121.043 61.1502C95.4492 56.1202 85.0712 49.3287 81.3188 43.8243C78.1432 39.1658 78.5232 33.3837 82.5747 24.8777C84.5469 20.7369 87.1374 16.5016 89.9362 12.0994C90.4051 11.362 90.8837 10.614 91.3668 9.85919L91.3676 9.85774C93.6601 6.27532 96.0515 2.53835 97.9648 -0.962768C100.217 -5.08364 102.453 -9.98252 102.8 -14.9642C102.985 -17.6086 102.654 -20.4565 101.387 -23.2314C100.11 -26.0257 98.0961 -28.2803 95.6191 -30.0319C92.0116 -32.5828 87.0192 -31.7264 84.4682 -28.1189C81.9173 -24.5114 82.7738 -19.519 86.3812 -16.9681C86.653 -16.7759 86.7795 -16.6431 86.8294 -16.5811C86.8418 -16.5143 86.8589 -16.3594 86.8393 -16.0787C86.7452 -14.7312 85.9742 -12.3863 83.9244 -8.63537C82.3022 -5.6668 80.2834 -2.50971 78.0023 1.05762C77.4922 1.85542 76.9689 2.67376 76.434 3.51508C73.6119 7.95393 70.557 12.901 68.1296 17.9974C63.3816 27.9656 59.9454 40.8764 68.0984 52.8365C75.6747 63.9506 91.7703 71.7032 117.957 76.8498C159.246 84.9643 188.749 73.4325 211.255 59.6371C210.937 62.1989 210.397 64.8498 209.52 67.6574C207.689 73.5161 204.309 80.2976 198.037 88.4515C197.574 89.0529 197.096 89.6804 196.601 90.3296L196.6 90.3306C185.937 104.313 167.576 128.39 134.145 120.024C117.582 115.879 106.099 111.55 97.0177 108.001C96.2432 107.698 95.4807 107.399 94.7292 107.104L94.7218 107.101C86.8365 104.003 80.1506 101.377 73.342 100.466C65.5398 99.422 57.8543 100.619 47.8042 104.683C37.9021 108.687 25.411 115.597 7.90505 126.226ZM86.8567 -16.5415C86.8557 -16.5421 86.8506 -16.5493 86.8432 -16.5633C86.8542 -16.5483 86.8579 -16.5409 86.8567 -16.5415ZM86.8192 -16.6215C86.8189 -16.6211 86.8204 -16.6152 86.8245 -16.6045C86.8227 -16.6118 86.8212 -16.6167 86.8203 -16.6193C86.8197 -16.6209 86.8193 -16.6217 86.8192 -16.6215Z" fill="#FFFCF5"/>
</g>
<defs>
<filter id="filter0_d_219_158" x="0.499207" y="-34.5006" width="312.564" height="231.535" filterUnits="userSpaceOnUse" color-interpolation-filters="sRGB">
<feFlood flood-opacity="0" result="BackgroundImageFix"/>
<feColorMatrix in="SourceAlpha" type="matrix" values="0 0 0 0 0 0 0 0 0 0 0 0 0 0 0 0 0 0 127 0" result="hardAlpha"/>
<feOffset dy="2"/>
<feGaussianBlur stdDeviation="2.5"/>
<feComposite in2="hardAlpha" operator="out"/>
<feColorMatrix type="matrix" values="0 0 0 0 0 0 0 0 0 0 0 0 0 0 0 0 0 0 0.25 0"/>
<feBlend mode="normal" in2="BackgroundImageFix" result="effect1_dropShadow_219_158"/>
<feBlend mode="normal" in="SourceGraphic" in2="effect1_dropShadow_219_158" result="shape"/>
</filter>
</defs>
</svg>
