<svg width="28" height="29" viewBox="0 0 28 29" fill="none" xmlns="http://www.w3.org/2000/svg">
<path d="M22.0965 20.6475L28 26.5496L26.0496 28.5L20.1475 22.5965C17.9514 24.357 15.2198 25.3145 12.4052 25.3105C5.55755 25.3105 0 19.7529 0 12.9052C0 6.05755 5.55755 0.5 12.4052 0.5C19.2529 0.5 24.8105 6.05755 24.8105 12.9052C24.8145 15.7198 23.857 18.4514 22.0965 20.6475ZM19.3315 19.6247C21.0804 17.8256 22.0573 15.4144 22.0538 12.9052C22.0538 7.57512 17.7354 3.25672 12.4052 3.25672C7.07512 3.25672 2.75672 7.57512 2.75672 12.9052C2.75672 18.2354 7.07512 22.5538 12.4052 22.5538C14.9144 22.5573 17.3256 21.5804 19.1247 19.8315L19.3315 19.6247Z" fill="#B3B3B3"/>
</svg>
